Coordinates
version=1
nRows=12
nColumns=42
inDegrees=yes

Units are S.I. units (second, meters, Newtons, ...)
If the header above contains a line with 'inDegrees', this indicates whether rotational values are in degrees (yes) or radians (no).

endheader
time	pelvis_tilt	pelvis_list	pelvis_rotation	pelvis_tx	pelvis_ty	pelvis_tz	hip_flexion_r	hip_adduction_r	hip_rotation_r	knee_angle_r	knee_adduction_r	knee_angle_r_beta	ankle_angle_r	subtalar_angle_r	mtp_angle_r	hip_flexion_l	hip_adduction_l	hip_rotation_l	knee_angle_l	knee_adduction_l	knee_angle_l_beta	ankle_angle_l	subtalar_angle_l	mtp_angle_l	lumbar_extension	lumbar_bending	lumbar_rotation	arm_flex_r	arm_add_r	arm_rot_r	elbow_flex_r	pro_sup_r	wrist_flex_r	wrist_dev_r	arm_flex_l	arm_add_l	arm_rot_l	elbow_flex_l	pro_sup_l	wrist_flex_l	wrist_dev_l
      1.94000000	     -9.45576328	     -1.29394176	     -3.15520680	      0.42459383	      0.91349706	     -0.07831798	     -8.57925093	      8.72950479	     -2.20132285	      3.63431588	     -7.38837245	      0.06343078	     24.60664832	      8.32125482	     -7.50813826	     36.68543501	     -1.41977051	     -4.40952959	      8.58460747	     -4.95734420	      0.14982967	      6.47282082	      4.64834433	     -7.50813826	      1.70750137	     -0.13166452	      3.26809782	      7.99777075	    -18.29594447	      1.85107568	     40.89574454	     90.00000001	      0.00000000	      0.00000000	    -19.07307550	    -10.66633432	    -14.34276166	     17.75470415	     90.00000001	      0.00000000	      0.00000000
      1.95000000	     -9.47405439	     -1.12946849	     -3.38028165	      0.43646591	      0.91195366	     -0.07845284	     -9.10878890	      8.34784901	     -1.97811495	      4.21298448	     -7.22332344	      0.07353045	     24.60429600	      8.20859106	     -7.50804054	     36.91279993	     -1.27255546	     -4.56511431	      9.51976868	     -5.01965023	      0.16615131	      6.07911805	      4.32900141	     -7.50804054	      1.72354069	     -0.49855833	      3.44792136	      7.80336845	    -18.22188250	      1.72285205	     40.93454576	     90.00000001	      0.00000000	      0.00000000	    -18.92614797	    -10.83108264	    -14.27515001	     17.57882737	     90.00000001	      0.00000000	      0.00000000
      1.96000000	     -9.52998022	     -0.84478265	     -3.62679360	      0.44848682	      0.91066392	     -0.07850900	     -9.56379769	      7.81746784	     -1.57018037	      4.87006101	     -7.03269350	      0.08499860	     24.49076407	      7.72402839	     -7.50778614	     37.22490377	     -1.05684781	     -4.50587719	     10.91121413	     -5.03116677	      0.19043661	      5.29182371	      2.91881913	     -7.50778614	      1.81570816	     -1.01729608	      3.69340224	      7.48541674	    -17.99599603	      1.31853684	     40.90840713	     90.00000001	      0.00000000	      0.00000000	    -18.61393224	    -11.02950190	    -14.20185784	     17.21657606	     90.00000001	      0.00000000	      0.00000000
      1.97000000	     -9.45203028	     -0.57930797	     -3.73599848	      0.46071358	      0.90978363	     -0.07878558	    -10.10919648	      7.28412830	     -1.36287469	      5.61042717	     -6.81030108	      0.09792043	     24.22976018	      7.59937540	     -7.50770183	     37.31187435	     -0.74703342	     -3.89583322	     12.36356773	     -5.02441009	      0.21578496	      4.61850353	      2.50210491	     -7.50770183	      1.73714109	     -1.55129839	      3.76973935	      7.16599314	    -17.85146061	      1.24532781	     40.81418510	     90.00000001	      0.00000000	      0.00000000	    -18.37837864	    -11.27685199	    -14.13879582	     17.19601081	     90.00000001	      0.00000000	      0.00000000
      1.98000000	     -9.66315620	     -0.28372523	     -3.64376224	      0.47277321	      0.90901848	     -0.07919239	    -10.24510487	      6.75799216	     -1.00989923	      6.53891925	     -6.50667317	      0.11412567	     23.66679731	      6.37639569	     -7.50727535	     37.76518283	     -0.26787588	     -2.13995295	     14.18575865	     -4.84351770	      0.24758820	      2.63708796	     -1.72656368	     -7.50727535	      1.99028484	     -2.14904040	      3.73111548	      6.71300381	    -17.43932175	      0.57814995	     40.54168684	     90.00000001	      0.00000000	      0.00000000	    -17.88645808	    -11.56975758	    -13.94651403	     16.81227992	     90.00000001	      0.00000000	      0.00000000
      1.99000000	     -9.62850381	      0.10100442	     -3.54894943	      0.48522881	      0.90884935	     -0.07980771	    -10.58484493	      6.06031749	     -0.85765655	      7.55830793	     -6.16106486	      0.13191736	     22.91953266	      5.55552647	     -7.50683438	     37.89786448	      0.24360613	     -0.63699667	     16.02402758	     -4.50689502	      0.27967204	      1.31266781	     -4.28468801	     -7.50683438	      1.98068346	     -2.83693339	      3.61281536	      6.27327646	    -17.10565276	      0.24208172	     40.26952790	     90.00000001	      0.00000000	      0.00000000	    -17.44949993	    -11.83441238	    -13.76115411	     16.67155188	     90.00000001	      0.00000000	      0.00000000
      2.00000000	     -9.37123859	      0.52675063	     -3.45720133	      0.49824489	      0.90922666	     -0.08047290	    -11.09047498	      5.22734505	     -0.95054868	      8.72482740	     -5.67814084	      0.15227696	     22.02144040	      5.13995625	     -7.50670766	     37.87671913	      0.69288929	      0.00162791	     18.08762131	     -4.10997864	      0.31568855	      0.87015366	     -5.26946211	     -7.50670766	      1.76602566	     -3.57943415	      3.52842027	      5.72556023	    -16.77594152	     -0.01432350	     39.95623865	     90.00000001	      0.00000000	      0.00000000	    -16.96489609	    -12.11375937	    -13.57431655	     16.60031935	     90.00000001	      0.00000000	      0.00000000
      2.01000000	     -9.46596934	      0.86444786	     -3.21959406	      0.51089236	      0.90967541	     -0.08120889	    -11.01065174	      4.59262912	     -0.78831846	     10.26006136	     -5.23380645	      0.17907185	     20.81650287	      3.94874635	     -7.50632522	     37.97870995	      1.17291415	      2.07315651	     19.72391723	     -3.37384490	      0.34424730	     -0.47536395	     -8.67800623	     -7.50632522	      1.91435503	     -4.22184948	      3.35402867	      5.12168474	    -16.30153204	     -0.64556327	     39.46831441	     90.00000001	      0.00000000	      0.00000000	    -16.40820611	    -12.44278499	    -13.16694883	     16.53357103	     90.00000001	      0.00000000	      0.00000000
      2.02000000	     -9.27274933	      1.22474312	     -2.99621401	      0.52410035	      0.91075467	     -0.08211463	    -11.14930861	      3.82183609	     -0.86712117	     11.95752900	     -4.62945328	      0.20869825	     19.36195775	      3.04904260	     -7.50604888	     37.71585678	      1.65627079	      3.25692862	     21.28444717	     -2.74678962	      0.37148368	     -0.93674092	    -10.37031193	     -7.50604888	      1.78709622	     -4.86794092	      3.17255261	      4.45778688	    -15.87464359	     -1.07631462	     38.95183254	     90.00000001	      0.00000000	      0.00000000	    -15.82434031	    -12.71939666	    -12.81033073	     16.52894061	     90.00000001	      0.00000000	      0.00000000
      2.03000000	     -8.90666642	      1.47992142	     -2.76880812	      0.53754386	      0.91228406	     -0.08306340	    -11.40262398	      3.13332057	     -1.01874612	     13.72234657	     -3.98912561	      0.23950013	     17.60194782	      2.64390186	     -7.50596070	     37.14979349	      1.99495473	      3.93034966	     22.63998698	     -2.14320541	      0.39514232	     -0.56032265	    -10.81488722	     -7.50596070	      1.46727384	     -5.37054981	      2.96008048	      3.78558524	    -15.55547901	     -1.22452491	     38.41561077	     90.00000001	      0.00000000	      0.00000000	    -15.19150624	    -12.93708877	    -12.60496419	     16.63814675	     90.00000001	      0.00000000	      0.00000000
      2.04000000	     -8.88645223	      1.76166587	     -2.42436490	      0.55060210	      0.91381606	     -0.08412282	    -10.85767438	      2.51233756	     -1.25312897	     16.25479297	     -3.47234999	      0.28369966	     15.60131133	      0.98369103	     -7.50576490	     36.72005559	      2.54371417	      5.08490477	     23.50081945	     -1.66820736	      0.41016668	     -0.80435047	    -12.44913606	     -7.50576490	      1.53013070	     -5.89043608	      2.74436315	      3.07298692	    -15.05521317	     -1.83961321	     37.59231982	     90.00000001	      0.00000000	      0.00000000	    -14.45392796	    -13.22075699	    -12.10803261	     16.67733798	     90.00000001	      0.00000000	      0.00000000
      2.05000000	     -8.45138995	      1.85156037	     -2.09242311	      0.56378648	      0.91606921	     -0.08534407	    -10.86469360	      2.04561787	     -1.24157118	     18.43698186	     -2.85962818	      0.32178604	     13.37951667	      0.61456632	     -7.50572318	     35.77108077	      2.86759775	      5.58019987	     24.28510757	     -1.28538800	      0.42385509	     -0.13665444	    -12.70822963	     -7.50572318	      1.08660932	     -6.14667772	      2.40543936	      2.44260891	    -14.76315929	     -1.92992977	     36.89051320	     90.00000001	      0.00000000	      0.00000000	    -13.66555519	    -13.34348842	    -11.91648600	     16.85055718	     90.00000001	      0.00000000	      0.00000000
